<?xml version="1.0" standalone="no"?><!DOCTYPE svg PUBLIC "-//W3C//DTD SVG 1.1//EN" "http://www.w3.org/Graphics/SVG/1.1/DTD/svg11.dtd"><svg t="1716532961532" class="icon" viewBox="0 0 1024 1024" version="1.1" xmlns="http://www.w3.org/2000/svg" p-id="2646" xmlns:xlink="http://www.w3.org/1999/xlink" width="200" height="200"><path d="M987.3408 0H36.6592C16.384 0 0 16.384 0 36.6592v950.8864C0 1007.616 16.384 1024 36.6592 1024h950.6816c20.2752 0 36.6592-16.384 36.6592-36.6592V36.6592C1024 16.384 1007.616 0 987.3408 0z m-45.8752 941.6704H82.5344v-237.568h858.9312v237.568z m0-310.8864H82.5344V393.216h858.9312v237.568z m0-310.8864H82.5344v-237.568h858.9312v237.568zM813.056 873.0624c25.3952 0 45.8752-20.48 45.8752-45.6704s-20.48-45.6704-45.8752-45.6704c-25.3952 0-45.8752 20.48-45.8752 45.6704s20.48 45.6704 45.8752 45.6704zM175.3088 237.7728h210.3296c5.12 0 9.216-4.096 9.216-9.216V173.6704c0-5.12-4.096-9.216-9.216-9.216H175.3088c-5.12 0-9.216 4.096-9.216 9.216v54.8864c0.2048 5.12 4.3008 9.216 9.216 9.216z m0 310.8864h210.3296c5.12 0 9.216-4.096 9.216-9.216v-54.8864c0-5.12-4.096-9.216-9.216-9.216H175.3088c-5.12 0-9.216 4.096-9.216 9.216v54.8864c0.2048 4.9152 4.3008 9.216 9.216 9.216z" fill="#515151" p-id="2647"></path></svg>